<?xml version="1.0" standalone="no"?><!DOCTYPE svg PUBLIC "-//W3C//DTD SVG 1.1//EN" "http://www.w3.org/Graphics/SVG/1.1/DTD/svg11.dtd"><svg t="1573026404350" class="icon" viewBox="0 0 1204 1024" version="1.1" xmlns="http://www.w3.org/2000/svg" p-id="2216" width="56.4375" height="48" xmlns:xlink="http://www.w3.org/1999/xlink"><defs><style type="text/css"></style></defs><path d="M144.007731 831.980667v177.033504a14.976804 14.976804 0 0 0 21.79317 13.344717l275.150773-140.455541z" fill="#D17F1E" p-id="2217"></path><path d="M143.527706 880.943296l255.949741 22.753221 41.474227-21.79317-297.423968-49.92268v48.962629z" fill="#D17F1E" opacity=".4" p-id="2218"></path><path d="M1053.368553 831.980667v177.033504a14.976804 14.976804 0 0 1-21.79317 13.344717L755.944585 881.903347z" fill="#D17F1E" p-id="2219"></path><path d="M804.235177 904.464558l249.133376-20.929123v-51.554768l-297.423968 49.92268 48.290592 22.561211z" fill="#D17F1E" opacity=".4" p-id="2220"></path><path d="M1204.096645 829.100512l-603.776415 102.725515V192.490334l603.776415-102.62951v739.239688z" fill="#F89B1B" p-id="2221"></path><path d="M1095.706826 108.77384l52.226804-9.12049-52.130799 513.435565-0.096005-504.315075z" fill="#F89B1B" opacity=".3" p-id="2222"></path><path d="M0 829.100512l603.87242 102.725515V192.490334L0 89.860824v739.239688z" fill="#F89B1B" p-id="2223"></path><path d="M111.077963 108.77384l-52.226803-9.12049 47.714561 560.478091 4.512242-551.357601z" fill="#F89B1B" opacity=".3" p-id="2224"></path><path d="M1095.2268 748.936209L600.608245 853.005796V103.973582L1095.2268 0v748.936209z" fill="#F9DD95" p-id="2225"></path><path d="M108.869845 748.936209l494.71456 104.069587V103.973582L108.869845 0v748.936209z" fill="#EFCE86" p-id="2226"></path><path d="M493.274483 320.75322s92.836984 2.208119 93.893041-115.782216c0 0-16.416881 101.573453-93.893041 115.782216z" fill="#EFCE86" opacity=".6" p-id="2227"></path><path d="M475.417524 320.56121a52.610825 52.610825 0 0 1-48.002577-57.603092c1.152062-6.912371 11.808634-41.474227 45.890464-36.097938s28.321521 34.753866 28.32152 34.753865a21.79317 21.79317 0 1 1-43.010309-6.912371s-4.800258 2.592139-6.33634 15.552835 9.600515 22.177191 27.073453 25.057346 67.203608-15.168814 79.684278-88.324742c11.040593-67.203608-43.970361-119.046391-87.940721-130.663015a42.338273 42.338273 0 0 1 48.770618-3.840207A144.967783 144.967783 0 0 1 585.631441 212.075386c-11.424613 71.811855-60.963273 116.262242-110.213917 108.485824zM990.101156 539.740977a52.418814 52.418814 0 0 0-48.002577 57.603093c1.152062 6.912371 11.808634 41.570232 45.890464 36.193943s28.225515-34.753866 28.225515-34.753866a21.79317 21.79317 0 1 0-42.914304 6.816366s-4.800258-2.496134-6.432345-15.45683 9.600515-22.273196 27.169458-25.057345 67.203608 15.168814 79.684278 88.228737c11.040593 67.203608-43.970361 119.142396-88.036726 130.75902a76.804123 76.804123 0 0 1 16.512886 17.760954c57.603093-13.152706 109.061855-84.100515 98.021263-153.608247-11.328608-72.195876-60.867268-116.358247-110.117912-108.485825zM682.500642 217.9317c5.088273-3.552191 28.801546-25.537371 10.944587-50.594716s-38.402062-9.12049-38.402061-9.12049a19.201031 19.201031 0 1 0 22.17719 31.681701s0 4.800258-9.600515 11.040593-21.313144 1.344072-30.529639-11.904639-14.112758-59.715206 39.458118-97.733247c1.824098-1.344072 3.744201-2.400129 5.568299-3.552191a26.017397 26.017397 0 0 0-28.801546-8.640464c-45.314433 36.865979-58.179123 88.996778-34.369845 122.982603a46.5625 46.5625 0 0 0 63.555412 15.84085zM202.186855 734.727446c0.480026-6.240335-1.632088-38.402062-32.161727-40.610181a26.209407 26.209407 0 0 0-31.48969 24.097294 19.201031 19.201031 0 1 0 38.402061 2.97616s3.648196 3.16817 2.400129 14.688789-12.576675 17.280928-28.801546 16.03286-54.530928-27.073454-50.402706-92.644974c0-2.208119 0.576031-4.320232 0.864046-6.52835a25.921392 25.921392 0 0 0-25.249355 17.184923c0 58.467139 31.873711 101.477448 73.251932 104.645618a46.5625 46.5625 0 0 0 53.186856-39.842139z" fill="#F89B1B" p-id="2228"></path><path d="M751.912368 177.225515a9.600515 9.600515 0 0 1-9.600515-8.256443 9.600515 9.600515 0 0 1 8.160438-10.848583l262.286081-37.057989a9.600515 9.600515 0 1 1 2.59214 19.20103l-262.094072 36.86598zM667.043812 287.343427a9.600515 9.600515 0 0 1-1.248067-19.201031l347.058633-45.698454a9.600515 9.600515 0 1 1 2.592139 19.201031l-347.154638 45.602449zM667.043812 379.700385a9.600515 9.600515 0 0 1-1.248067-19.201031l347.058633-45.602448a9.600515 9.600515 0 1 1 2.592139 19.201031l-347.154638 45.506443zM667.043812 471.961338a9.600515 9.600515 0 0 1-1.248067-19.20103l347.058633-45.698454a9.600515 9.600515 0 0 1 10.848582 8.256443 9.600515 9.600515 0 0 1-8.256443 10.752578l-347.154638 45.794458zM667.043812 564.222292a9.600515 9.600515 0 0 1-9.600516-8.256444 9.600515 9.600515 0 0 1 8.256444-10.848582L1012.854378 499.226802a9.600515 9.600515 0 1 1 2.592139 19.201031l-347.154638 45.794459zM667.043812 656.57925a9.600515 9.600515 0 0 1-9.600516-8.352448 9.600515 9.600515 0 0 1 8.256444-10.752578L902.44845 606.080539a9.600515 9.600515 0 1 1 2.592139 19.201031l-236.652705 31.201675zM667.043812 748.840203a9.600515 9.600515 0 0 1-1.248067-19.20103l347.058633-45.698454a9.600515 9.600515 0 1 1 2.592139 19.201031L668.291879 748.840203zM449.304122 177.225515a9.600515 9.600515 0 0 0 9.600515-8.256443 9.600515 9.600515 0 0 0-8.160438-10.848583l-262.382086-37.057989a9.600515 9.600515 0 0 0-2.688145 19.20103l262.286082 37.05799zM403.221648 271.118556a9.600515 9.600515 0 0 0 1.248067-19.201031l-216.011597-29.473583a9.600515 9.600515 0 0 0-10.752577 8.256444 9.600515 9.600515 0 0 0 8.256443 10.848582l216.011597 29.377577zM534.172678 379.700385a9.600515 9.600515 0 0 0 1.248067-19.201031L188.266108 314.896906a9.600515 9.600515 0 1 0-2.496134 19.201031l347.058632 45.506443zM534.172678 471.961338a9.600515 9.600515 0 0 0 1.248067-19.20103l-347.154637-45.602449a9.600515 9.600515 0 0 0-2.496134 19.201031l347.058632 45.506443zM534.172678 564.222292a9.600515 9.600515 0 0 0 9.600516-8.256444 9.600515 9.600515 0 0 0-8.256443-10.848582L188.266108 499.226802a9.600515 9.600515 0 0 0-10.752578 8.256444 9.600515 9.600515 0 0 0 8.256444 10.944587l347.058632 45.794459zM534.172678 656.57925a9.600515 9.600515 0 0 0 1.248067-19.201031l-340.626287-43.298324a9.600515 9.600515 0 0 0-2.496134 19.201031l340.530282 43.202319zM534.172678 748.840203a9.600515 9.600515 0 0 0 1.248067-19.20103l-302.224225-42.242268a9.600515 9.600515 0 1 0-2.496134 19.20103L532.828606 748.840203z" fill="#CEB074" p-id="2229"></path></svg>